# xmcd CD database file
#
# Track frame offsets:
#	150
#	17279
#	33493
#	45357
#	58940
#	72441
#	82300
#	103597
#	114975
#	129399
#	143823
#	155467
#	170222
#	186100
#	201434
#	215528
#	226630
#	239828
#	254304
#	266932
#	283353
#	294298
#	307199
#
# Disc length: 4292 seconds
#
# Revision: 1
# Processed by: cddbd v1.5.2PL0 Copyright (c) Steve Scherf et al.
# Submitted via: CDex 1.51
#
DISCID=6410c217
DTITLE=Sal Salvador - Colors in Sound and The Beat for This Generation
DYEAR=2015
DGENRE=Jazz
TTITLE0=Walkin' Time
TTITLE1=For You, for Me, Forevermore
TTITLE2=What is there to Say?
TTITLE3=Deep Down
TTITLE4=Easy Living
TTITLE5=Yesterdays
TTITLE6=You Brought a New Kind of Love to Me
TTITLE7=Desert Fever
TTITLE8=Spring Will Be a Little Late This Year
TTITLE9=Periwinkle Blues
TTITLE10=You'd Be So Nice to Come Home To
TTITLE11=To Beat or Not to Beat
TTITLE12=That Old Feeling
TTITLE13=Satin Doll
TTITLE14=But Beautiful
TTITLE15=Venice Anyone
TTITLE16=Secret Love
TTITLE17=The Mad Pad
TTITLE18=I'm Glad There Is You
TTITLE19=Bleeker Street Blues
TTITLE20=The Dancing Beat
TTITLE21=The Continental
TTITLE22=I Concentrate On You
EXTD=YEAR: 2015
EXTT0=
EXTT1=
EXTT2=
EXTT3=
EXTT4=
EXTT5=
EXTT6=
EXTT7=
EXTT8=
EXTT9=
EXTT10=
EXTT11=
EXTT12=
EXTT13=
EXTT14=
EXTT15=
EXTT16=
EXTT17=
EXTT18=
EXTT19=
EXTT20=
EXTT21=
EXTT22=
PLAYORDER=
